<svg xmlns="http://www.w3.org/2000/svg" viewBox="0 0 24 24" class="fill-current">
  <path d="M15.07 2H8.93C3.33 2 2 3.33 2 8.93v6.14C2 20.67 3.33 22 8.93 22h6.14c5.6 0 6.93-1.33 6.93-6.93V8.93C22 3.33 20.67 2 15.07 2zm3.08 14.27h-1.46c-.55 0-.72-.44-1.71-1.42-1.32-1.23-1.89-1.39-2.21-1.39-.45 0-.58.13-.58.75v1.3c0 .41-.13.64-1.2.64-1.77 0-3.37-.96-4.61-2.75-1.87-2.66-2.37-4.65-2.37-5.06 0-.22.08-.43.75-.43h1.46c.56 0 .77.25.99.84.81 2.35 2.16 4.41 2.72 4.41.21 0 .31-.09.31-.61v-2.37c-.06-1.09-.63-1.18-.63-1.57 0-.19.16-.37.41-.37h2.3c.31 0 .42.16.42.56v3.2c0 .34.15.46.24.46.21 0 .38-.12.77-.51 1.18-1.32 2.02-3.35 2.02-3.35.11-.24.37-.46.87-.46h1.46c.44 0 .54.23.44.54-.18.85-1.96 3.36-1.96 3.36-.15.25-.21.36 0 .64.15.21.64.64 1 1.07.62.77 1.09 1.42 1.22 1.87.11.44-.09.67-.55.67z"/>
</svg> 